<?xml version="1.0" encoding="UTF-8" standalone="no"?>
<svg width="250px" height="250px" viewBox="0 0 250 250" version="1.1" xmlns="http://www.w3.org/2000/svg" xmlns:xlink="http://www.w3.org/1999/xlink">
    <!-- Generator: Sketch 41.2 (35397) - http://www.bohemiancoding.com/sketch -->
    <title>Prototype</title>
    <desc>A static site generator.</desc>
    <defs>
        <path d="M96.4936829,250 L200.009625,250 C227.621705,250 250,227.618547 250,200.009625 L250,49.9903746 C250,22.3782945 227.618547,0 200.009625,0 L49.9903746,0 C22.3782945,0 0,22.3814531 0,49.9903746 L0,200.009625 C0,227.621705 22.3814531,250 49.9903746,250 L79.7720208,250 C81.2553396,237.71816 82.4624801,225.758681 83.3934776,214.121212 C84.3350552,202.351492 84.9941496,189.969932 85.3707807,176.976161 L85.3707807,169.34942 C85.3707807,155.790703 84.5233735,142.608814 82.8285338,129.803358 C80.7570631,114.926432 77.8382163,100.049729 74.0719058,85.1728025 C72.1887506,86.1143801 70.3527018,87.432569 68.5637043,89.1274087 C66.7747069,90.8222484 65.1269708,92.8936881 63.6204466,95.3417899 C62.1139224,97.7898917 60.9369681,100.567504 60.0895482,103.67471 C59.2421284,106.781916 58.8184248,110.124467 58.8184248,113.702461 C64.2795749,114.267408 67.6692035,115.77391 68.9874122,118.222011 C69.5523587,119.54022 69.8348278,120.764253 69.8348278,121.894146 C69.8348278,123.212354 69.4582024,124.530543 68.7049403,125.848752 C67.1984161,128.485169 64.6561947,130.462453 61.0781998,131.780661 C59.5716756,132.345608 58.065174,132.628077 56.5586498,132.628077 C54.110548,132.628077 51.4741703,131.968982 48.6494374,130.650774 C47.7078598,127.637725 46.5779836,124.765957 45.259775,122.035382 C43.9415663,119.304807 43.1883155,116.527194 43,113.702461 L43,110.877743 C43,107.111432 43.5649381,103.533491 44.6948312,100.143812 C46.2013554,95.8125547 48.1786387,91.7167535 50.6267405,87.8562853 C53.0748423,83.9958171 55.7582983,80.4178758 58.6771889,77.1223542 C61.5960795,73.8268325 64.185379,70.8609075 66.4451653,68.2244902 C65.8802187,66.5296505 65.1740461,64.8819144 64.3266263,63.2812325 C63.4792064,61.6805505 62.7259556,60.0798926 62.0668513,58.4792107 C61.407747,56.8785287 60.8898871,55.1366363 60.513256,53.253481 C60.3249405,52.6885345 60.2307841,52.02944 60.2307841,51.2761779 C60.2307841,50.1462848 60.4190968,48.9222523 60.7957279,47.6040436 C63.4321452,46.4741505 65.6918976,45.6267433 67.5750528,45.0617968 C68.1399994,44.8734813 68.7990938,44.7793249 69.5523559,44.7793249 C70.8705646,44.7793249 72.3770661,45.061794 74.0719058,45.6267405 C75.7667455,46.1916871 76.7553872,47.509876 77.0378605,49.5813467 C77.3203338,51.6528175 77.93235,53.4417881 78.8739277,54.9483123 C82.4519226,54.1950502 85.8415511,53.1122522 89.042915,51.6998858 C92.2442789,50.2875193 95.3043602,48.7810178 98.2232508,47.1803358 L106.979879,42.378314 C109.898769,40.7776321 113.053007,39.3182087 116.442687,38 C129.436458,38.1883155 141.676783,39.930208 153.16403,43.2257296 C164.651277,46.5212513 174.537693,51.4173814 182.823576,57.9142669 C191.109459,64.4111524 197.512091,72.5556766 202.031664,82.3480838 C205.609658,90.2573357 207.398629,99.2963452 207.398629,109.465383 C207.398629,112.101801 207.304473,114.738179 207.116157,117.374596 C206.927842,120.57596 206.504138,124.200979 205.845034,128.249763 C205.185929,132.298547 204.103131,135.923566 202.596607,139.12493 C200.336821,144.209449 196.900114,149.011423 192.286384,153.530995 C187.672654,158.050568 182.446976,162.005135 176.609195,165.394814 C170.771414,168.784493 164.462939,171.326715 157.68358,173.021554 C153.352323,174.151448 149.021131,174.716386 144.689874,174.716386 C142.241772,174.716386 139.793707,174.528073 137.345605,174.151442 C135.085819,173.774811 132.308206,172.833247 129.012685,171.326723 C125.717163,169.820199 122.845395,167.889994 120.397293,165.53605 C117.949191,163.182106 116.348533,160.404494 115.595271,157.20313 C115.406955,156.449868 115.312799,155.696617 115.312799,154.943355 C115.312799,152.495253 116.348519,149.764719 118.41999,146.75167 C120.114829,146.186724 121.715487,145.904255 123.222011,145.904255 L125.481786,145.904255 L131.696168,147.599086 C132.261114,148.164033 132.63774,148.917283 132.826055,149.858861 C133.014371,150.800439 133.249761,151.742002 133.532235,152.68358 C133.814708,153.625157 134.144255,154.519643 134.520886,155.367063 C134.897517,156.214482 135.556612,156.732342 136.498189,156.920658 C138.193029,157.108973 139.793687,157.20313 141.300211,157.20313 C148.644517,157.20313 155.329617,156.073253 161.355714,153.813467 C168.700019,151.17705 174.773104,147.222483 179.57515,141.949649 C184.377196,136.676814 187.719746,130.368339 189.602901,123.024033 C190.732794,119.069407 191.297732,114.926528 191.297732,110.595271 C191.297732,107.017276 190.921107,103.345178 190.167845,99.5788679 C189.037952,93.1761402 186.825278,87.6679938 183.529756,83.0542635 C180.234234,78.4405332 176.232589,74.3918102 171.524701,70.907973 C166.816813,67.4241358 161.732371,64.3640545 156.27122,61.7276372 C150.81007,59.0912199 145.443158,56.5489985 140.170324,54.1008967 C138.098853,53.9125811 136.12157,53.8184248 134.238414,53.8184248 C125.764216,53.8184248 117.760926,55.1366137 110.228305,57.773031 C101.000845,61.1627104 92.7150861,65.0231207 85.3707807,69.3543777 C90.4552998,84.607935 94.2686319,100.284967 96.8108915,116.385944 C99.353151,132.486921 100.812574,148.917204 101.189205,165.677286 L101.189205,176.976161 C101.189205,190.158247 100.718424,203.528449 99.7768461,217.087166 C98.944949,228.020672 97.8505662,238.991572 96.4936829,250 Z" id="path-1"></path>
    </defs>
    <g id="Symbols" stroke="none" stroke-width="1" fill="none" fill-rule="evenodd">
        <g id="prototype-icon-copy">
            <mask id="mask-2" fill="white">
                <use xlink:href="#path-1"></use>
            </mask>
            <use id="Combined-Shape" fill="#3E606F" xlink:href="#path-1"></use>
        </g>
    </g>
</svg>